# xmcd CD database file
# Copyright (C) 1993-1998 Ti Kan
#
# Track frame offsets:
#	150
#	18592
#	37112
#	56767
#	74607
#	89245
#	110770
#	135220
#	154342
#	169680
#	191340
#	211005
#	236842
#	256267
#	281745
#
# Disc length: 3926 seconds
#
# Revision: 1
# Processed by: cddbd v1.4b41PL1 Copyright (c) Steve Scherf et al.
# Submitted via: CDValet v3.31 - Copyright (c) 1997 Greg Leichner
#
DISCID=e00f540f
DTITLE=Memphis Slim/Matt Murphy/Eddie Taylor - Together Again O
DTITLE=ne More Time/Still Not Ready For Eddie
DYEAR=1900
DGENRE=
TTITLE0=Wish Me Well
TTITLE1=Steppin' Out
TTITLE2=Havin' Fun
TTITLE3=Movin' On
TTITLE4=Black Cat Blues
TTITLE5=Juggle Boogie
TTITLE6=My Babe
TTITLE7=Bad Boy
TTITLE8=If You Don't Want Me Baby
TTITLE9=Clouds In My Heart
TTITLE10=Knockin' At Your Door
TTITLE11=Sittin' Here Thinkin'
TTITLE12=Bigtown Playboy
TTITLE13=Anna Lee
TTITLE14=Boogaloo Farm
EXTD=
EXTT0=
EXTT1=
EXTT2=
EXTT3=
EXTT4=
EXTT5=
EXTT6=
EXTT7=
EXTT8=
EXTT9=
EXTT10=
EXTT11=
EXTT12=
EXTT13=
EXTT14=
PLAYORDER=
